<?xml version="1.0" encoding="iso-8859-1"?>
<!-- Generator: Adobe Illustrator 18.1.1, SVG Export Plug-In . SVG Version: 6.00 Build 0)  -->
<svg version="1.1" id="Capa_1" xmlns="http://www.w3.org/2000/svg" xmlns:xlink="http://www.w3.org/1999/xlink" x="0px" y="0px"
	 viewBox="0 0 16.003 16.003" style="enable-background:new 0 0 16.003 16.003;" xml:space="preserve">
<g>
	<g>
		<path style="fill:#010002;" d="M16.003,3.04c-0.589,0.261-1.221,0.438-1.885,0.517c0.678-0.406,1.197-1.05,1.443-1.815
			c-0.636,0.376-1.338,0.649-2.086,0.797c-0.599-0.639-1.451-1.037-2.396-1.037c-1.813,0-3.283,1.47-3.283,3.282
			c0,0.257,0.029,0.508,0.085,0.748c-2.728-0.137-5.147-1.444-6.766-3.43C0.832,2.586,0.671,3.15,0.671,3.752
			c0,1.139,0.58,2.144,1.46,2.732C1.593,6.466,1.087,6.318,0.644,6.072v0.041c0,1.59,1.132,2.917,2.633,3.219
			C3.002,9.406,2.712,9.447,2.412,9.447c-0.212,0-0.417-0.021-0.618-0.061c0.418,1.305,1.63,2.254,3.066,2.28
			c-1.123,0.88-2.539,1.403-4.077,1.403c-0.265,0-0.526-0.016-0.783-0.045c1.453,0.933,3.178,1.477,5.032,1.477
			c6.039,0,9.34-5.002,9.34-9.34l-0.011-0.425C15.006,4.276,15.564,3.698,16.003,3.04z"/>
	</g>
</g>
<g>
</g>
<g>
</g>
<g>
</g>
<g>
</g>
<g>
</g>
<g>
</g>
<g>
</g>
<g>
</g>
<g>
</g>
<g>
</g>
<g>
</g>
<g>
</g>
<g>
</g>
<g>
</g>
<g>
</g>
</svg>
