<?xml version="1.0" standalone="no"?>
<!DOCTYPE svg PUBLIC "-//W3C//DTD SVG 20010904//EN"
 "http://www.w3.org/TR/2001/REC-SVG-20010904/DTD/svg10.dtd">
<svg version="1.0" xmlns="http://www.w3.org/2000/svg"
 width="270.000000pt" height="270.000000pt" viewBox="0 0 270.000000 270.000000"
 preserveAspectRatio="xMidYMid meet">
<metadata>
Created by potrace 1.11, written by Peter Selinger 2001-2013
</metadata>
<g transform="translate(0.000000,270.000000) scale(0.100000,-0.100000)"
fill="#000000" stroke="none">
<path d="M1649 1738 c-1 -7 -2 -30 -4 -50 -2 -20 -8 -61 -14 -90 -6 -29 -13
-71 -16 -93 -3 -22 -10 -62 -15 -90 -5 -27 -12 -66 -14 -85 -6 -36 -13 -76
-21 -120 -8 -43 -18 -105 -18 -117 0 -7 -4 -13 -7 -13 -21 0 -28 38 -32 165
-4 151 -12 180 -65 230 -53 49 -165 71 -268 52 -40 -7 -138 -47 -153 -62 -2
-1 7 -22 18 -47 l22 -44 58 29 c73 36 155 39 200 7 30 -22 38 -37 45 -90 3
-29 2 -31 -18 -25 -12 3 -52 9 -88 12 -152 13 -269 -64 -269 -177 0 -113 92
-189 214 -177 61 6 108 27 154 70 l32 31 0 -25 c1 -45 42 -77 95 -74 17 1 44
3 62 3 34 2 46 24 57 107 9 66 35 208 40 212 2 2 3 -67 2 -154 l-1 -158 63 -3
62 -3 0 47 0 48 32 -33 c48 -49 95 -68 169 -67 76 1 127 24 181 79 97 100 104
292 15 409 -68 89 -198 118 -290 64 -25 -14 -55 -38 -66 -52 l-21 -27 0 162 0
161 -70 0 c-49 0 -70 -4 -71 -12z m358 -348 c43 -26 74 -89 75 -150 1 -149
-167 -222 -262 -113 -27 31 -30 40 -30 106 0 62 4 78 25 106 51 70 128 90 192
51z m-661 -175 c18 -6 21 -13 19 -43 -1 -21 -5 -44 -9 -53 -10 -22 -75 -57
-111 -59 -52 -4 -63 -1 -91 23 -50 43 -28 116 40 137 31 9 113 6 152 -5z"/>
<path d="M457 1706 c-67 -28 -77 -35 -136 -95 -122 -125 -139 -328 -41 -486
37 -59 78 -97 142 -130 42 -22 65 -28 148 -39 53 -7 155 29 195 69 l20 20 3
-42 3 -43 62 0 62 0 0 195 c0 166 -2 195 -15 196 -60 5 -260 3 -261 -3 -1 -10
-1 -63 0 -86 1 -16 10 -18 76 -17 l75 2 0 -30 c0 -58 -108 -127 -200 -127 -66
0 -111 21 -158 75 -91 104 -85 279 13 381 6 7 29 21 51 32 78 40 204 11 256
-58 12 -17 26 -30 30 -30 5 0 31 17 58 37 l49 37 -17 29 c-24 41 -78 86 -131
111 -71 32 -208 33 -284 2z"/>
<path d="M2326 1111 c-2 -3 -3 -39 -4 -78 l0 -73 58 0 58 0 4 61 c5 87 1 94
-61 95 -29 0 -53 -2 -55 -5z"/>
</g>
</svg>
